{"title":"River.Cottage-Veg.Every.Day.S01E04-Summer.Pleasures-AUSHD","uid":10035456,"size":363227908,"categoryP":"video","categoryS":"tv_shows","magnet":"?xt=urn:btih:c176a268d4ad3c9c541439d3fa2ead94dfe73a30&amp;dn=River.Cottage-Veg.Every.Day.S01E04-Summer.Pleasures-AUSHD&amp;tr=udp%3A%2F%2Ftracker.openbittorrent.com%3A80&amp;tr=udp%3A%2F%2Fopen.demonii.com%3A1337&amp;tr=udp%3A%2F%2Ftracker.coppersurfer.tk%3A6969&amp;tr=udp%3A%2F%2Fexodus.desync.com%3A6969","seeders":3,"leechers":0,"uploader":"djflickit","files":1,"time":1398392973,"description":"Hugh visits Sachiko, a Birmingham Japanese chef who introduces him to the vegetarian ways of Buddhist monks, along with cooking techniques entirely dedicated to wowing the palate out of any yearning for meat or fish.\n\n\nGeneral\n\nFormat                                   : AVI\nFormat/Info                              : Audio Video Interleave\nFile size                                : 346 MiB\nDuration                                 : 46mn 24s\nOverall bit rate                         : 1 044 Kbps\n\nVideo\nID                                       : 0\nFormat                                   : MPEG-4 Visual\nFormat profile                           : Simple@L3\nFormat settings, BVOP                    : No\nFormat settings, QPel                    : No\nFormat settings, GMC                     : No warppoints\nFormat settings, Matrix                  : Default (H.263)\nCodec ID                                 : XVID\nCodec ID/Hint                            : XviD\nDuration                                 : 46mn 24s\nBit rate                                 : 899 Kbps\nWidth                                    : 640 pixels\nHeight                                   : 360 pixels\nDisplay aspect ratio                     : 16:9\nFrame rate                               : 25.000 fps\nColor space                              : YUV\nChroma subsampling                       : 4:2:0\nBit depth                                : 8 bits\nScan type                                : Progressive\nCompression mode                         : Lossy\nBits/(Pixel*Frame)                       : 0.156\nStream size                              : 298 MiB (86%)\nWriting library                          : XviD 1.2.1 (UTC 2008-12-04)\n\nAudio\nID                                       : 1\nFormat                                   : MPEG Audio\nFormat version                           : Version 1\nFormat profile                           : Layer 3\nMode                                     : Joint stereo\nMode extension                           : MS Stereo\nCodec ID                                 : 55\nCodec ID/Hint                            : MP3\nDuration                                 : 46mn 24s\nBit rate mode                            : Constant\nBit rate                                 : 128 Kbps\nChannel(s)                               : 2 channels\nSampling rate                            : 44.1 KHz\nCompression mode                         : Lossy\nStream size                              : 42.5 MiB (12%)\nAlignment                                : Aligned on interleaves\nInterleave, duration                     : 26 ms (0.65 video frame)\nWriting library                          : LAME3.98.2","torrent":{"xt":"urn:btih:c176a268d4ad3c9c541439d3fa2ead94dfe73a30","amp;dn":"River.Cottage-Veg.Every.Day.S01E04-Summer.Pleasures-AUSHD","amp;tr":["udp%3A%2F%2Ftracker.openbittorrent.com%3A80","udp%3A%2F%2Fopen.demonii.com%3A1337","udp%3A%2F%2Ftracker.coppersurfer.tk%3A6969","udp%3A%2F%2Fexodus.desync.com%3A6969"],"infoHash":"c176a268d4ad3c9c541439d3fa2ead94dfe73a30","infoHashBuffer":{"type":"Buffer","data":[193,118,162,104,212,173,60,156,84,20,57,211,250,46,173,148,223,231,58,48]},"announce":[],"urlList":[]}}